<svg width="41" height="37" viewBox="0 0 41 37" fill="none" xmlns="http://www.w3.org/2000/svg">
<path d="M29.4578 0.125C25.9742 0.125 22.6916 1.72324 20.5 4.32637C18.3084 1.72324 15.0258 0.125 11.5422 0.125C5.36934 0.125 0.59375 4.9293 0.59375 11.1404C0.59375 18.7488 7.35996 24.8547 17.6098 34.2719L20.5 36.875L23.3902 34.2719C33.64 24.8547 40.4062 18.7488 40.4062 11.1404C40.4062 4.9293 35.6307 0.125 29.4578 0.125ZM21.725 31.64L21.323 32.0133L20.5 32.7598L19.677 32.0133L19.275 31.64C14.4516 27.209 10.2789 23.3809 7.53223 19.9643C4.85254 16.6434 3.66582 13.9254 3.66582 11.1404C3.66582 8.94883 4.46973 6.93906 5.93398 5.46523C7.38867 3.99141 9.3793 3.1875 11.5422 3.1875C14.04 3.1875 16.5188 4.35508 18.1553 6.29785L20.5 9.08281L22.8447 6.29785C24.4813 4.34551 26.96 3.1875 29.4578 3.1875C31.6207 3.1875 33.6113 3.99141 35.0756 5.46523C36.5398 6.93906 37.3438 8.9584 37.3438 11.1404C37.3438 13.9158 36.1475 16.6434 33.4773 19.9643C30.7211 23.3809 26.558 27.209 21.725 31.64Z" fill="#D9D2D0"/>
</svg>
