<svg width="21" height="25" viewBox="0 0 21 25" fill="none" xmlns="http://www.w3.org/2000/svg">
<path d="M3.70251 24.9061C3.29213 24.9061 2.88577 24.8253 2.50663 24.6682C2.12749 24.5112 1.78299 24.281 1.49281 23.9908C1.20262 23.7006 0.972437 23.3561 0.815391 22.977C0.658345 22.5978 0.577515 22.1915 0.577515 21.7811V3.18108C0.577589 2.61174 0.733199 2.05325 1.02754 1.5659C1.32188 1.07855 1.74377 0.680874 2.24764 0.415813C2.75151 0.150753 3.31822 0.0283812 3.88657 0.0619139C4.45492 0.0954465 5.00331 0.283609 5.47252 0.606081L19.0688 9.90483C19.4864 10.192 19.828 10.5765 20.0639 11.0251C20.2999 11.4737 20.4232 11.973 20.4232 12.4798C20.4232 12.9867 20.2999 13.486 20.0639 13.9346C19.828 14.3832 19.4864 14.7676 19.0688 15.0548L5.47127 24.3561C4.95081 24.7139 4.33413 24.9057 3.70251 24.9061ZM3.70251 1.30108C3.39715 1.30218 3.09671 1.37815 2.82751 1.52233C2.52355 1.67907 2.2691 1.91716 2.09253 2.21004C1.91596 2.50293 1.82421 2.8391 1.82751 3.18108V21.7798C1.82772 22.1214 1.92124 22.4564 2.09796 22.7487C2.27468 23.0411 2.52789 23.2795 2.83026 23.4384C3.13262 23.5973 3.47265 23.6706 3.81363 23.6504C4.1546 23.6301 4.48357 23.5171 4.76502 23.3236L18.3613 14.0236C18.6116 13.8512 18.8163 13.6206 18.9577 13.3516C19.0991 13.0825 19.173 12.7831 19.173 12.4792C19.173 12.1753 19.0991 11.8759 18.9577 11.6069C18.8163 11.3378 18.6116 11.1072 18.3613 10.9348L4.76626 1.63858C4.45518 1.42055 4.08489 1.3028 3.70502 1.30108H3.70251Z" fill="#F23030"/>
</svg>
