<svg width="30" height="31" viewBox="0 0 30 31" fill="none" xmlns="http://www.w3.org/2000/svg">
<path d="M28.2 29.8912C28.9667 30.6579 30.15 29.4746 29.3833 28.7246L23.1333 22.4579C25.25 20.1079 26.5333 17.0079 26.5333 13.6079C26.5333 6.29125 20.5833 0.341248 13.2667 0.341248C5.95 0.341248 0 6.29125 0 13.6079C0 20.9246 5.95 26.8746 13.2667 26.8746C16.5667 26.8746 19.6167 25.6579 21.95 23.6412L28.2 29.8912ZM1.665 13.6079C1.665 7.20791 6.88167 2.00791 13.265 2.00791C19.665 2.00791 24.865 7.20791 24.865 13.6079C24.865 20.0079 19.665 25.2079 13.265 25.2079C6.88167 25.2079 1.665 20.0079 1.665 13.6079Z" fill="#D9D2D0"/>
</svg>
