<svg width="12" height="12" viewBox="0 0 12 12" fill="none" xmlns="http://www.w3.org/2000/svg">
<path d="M6 8.16858C6.61292 8.16858 7.13083 7.95733 7.55375 7.53483C7.97625 7.1115 8.1875 6.59358 8.1875 5.98108C8.1875 5.36816 7.97625 4.85025 7.55375 4.42733C7.13042 4.00483 6.6125 3.79358 6 3.79358C5.38708 3.79358 4.86917 4.00483 4.44625 4.42733C4.02375 4.85066 3.8125 5.36858 3.8125 5.98108C3.8125 6.594 4.02375 7.11191 4.44625 7.53483C4.86958 7.95733 5.3875 8.16858 6 8.16858ZM6 6.60608C5.82292 6.60608 5.67458 6.54608 5.555 6.42608C5.43542 6.30608 5.37542 6.15775 5.375 5.98108C5.375 5.804 5.435 5.65566 5.555 5.53608C5.675 5.4165 5.82333 5.3565 6 5.35608C6.17708 5.35608 6.32563 5.41608 6.44563 5.53608C6.56563 5.65608 6.62542 5.80441 6.625 5.98108C6.625 6.15816 6.565 6.3067 6.445 6.4267C6.325 6.5467 6.17667 6.6065 6 6.60608ZM6.00187 11.6061C5.22438 11.6061 4.49312 11.4586 3.80813 11.1636C3.12354 10.8682 2.52792 10.4673 2.02125 9.96108C1.51458 9.45525 1.11354 8.86025 0.818125 8.17608C0.522708 7.49191 0.375 6.76087 0.375 5.98295C0.375 5.20545 0.5225 4.4742 0.8175 3.7892C1.11292 3.10462 1.51375 2.509 2.02 2.00233C2.52583 1.49566 3.12083 1.09462 3.805 0.799204C4.48917 0.503787 5.22021 0.356079 5.99813 0.356079C6.77562 0.356079 7.50688 0.503579 8.19187 0.798579C8.87646 1.094 9.47208 1.49483 9.97875 2.00108C10.4854 2.50691 10.8865 3.10191 11.1819 3.78608C11.4773 4.47025 11.625 5.20129 11.625 5.9792C11.625 6.7567 11.4775 7.48795 11.1825 8.17295C10.8871 8.85754 10.4862 9.45316 9.98 9.95983C9.47417 10.4665 8.87917 10.8675 8.195 11.163C7.51083 11.4584 6.77979 11.6061 6.00187 11.6061ZM6 10.9811C7.39583 10.9811 8.57812 10.4967 9.54688 9.52795C10.5156 8.5592 11 7.37691 11 5.98108C11 4.58525 10.5156 3.40295 9.54688 2.4342C8.57812 1.46545 7.39583 0.981079 6 0.981079C4.60417 0.981079 3.42187 1.46545 2.45312 2.4342C1.48437 3.40295 1 4.58525 1 5.98108C1 7.37691 1.48437 8.5592 2.45312 9.52795C3.42187 10.4967 4.60417 10.9811 6 10.9811Z" fill="#F23030"/>
</svg>
