<svg width="12" height="13" viewBox="0 0 12 13" fill="none" xmlns="http://www.w3.org/2000/svg">
<path d="M6 8.6875C6.61292 8.6875 7.13083 8.47625 7.55375 8.05375C7.97625 7.63042 8.1875 7.1125 8.1875 6.5C8.1875 5.88708 7.97625 5.36917 7.55375 4.94625C7.13042 4.52375 6.6125 4.3125 6 4.3125C5.38708 4.3125 4.86917 4.52375 4.44625 4.94625C4.02375 5.36958 3.8125 5.8875 3.8125 6.5C3.8125 7.11292 4.02375 7.63083 4.44625 8.05375C4.86958 8.47625 5.3875 8.6875 6 8.6875ZM6 7.125C5.82292 7.125 5.67458 7.065 5.555 6.945C5.43542 6.825 5.37542 6.67667 5.375 6.5C5.375 6.32292 5.435 6.17458 5.555 6.055C5.675 5.93542 5.82333 5.87542 6 5.875C6.17708 5.875 6.32563 5.935 6.44563 6.055C6.56563 6.175 6.62542 6.32333 6.625 6.5C6.625 6.67708 6.565 6.82563 6.445 6.94563C6.325 7.06563 6.17667 7.12542 6 7.125ZM6.00187 12.125C5.22438 12.125 4.49312 11.9775 3.80813 11.6825C3.12354 11.3871 2.52792 10.9862 2.02125 10.48C1.51458 9.97417 1.11354 9.37917 0.818125 8.695C0.522708 8.01083 0.375 7.27979 0.375 6.50187C0.375 5.72438 0.5225 4.99312 0.8175 4.30813C1.11292 3.62354 1.51375 3.02792 2.02 2.52125C2.52583 2.01458 3.12083 1.61354 3.805 1.31813C4.48917 1.02271 5.22021 0.875 5.99813 0.875C6.77562 0.875 7.50688 1.0225 8.19187 1.3175C8.87646 1.61292 9.47208 2.01375 9.97875 2.52C10.4854 3.02583 10.8865 3.62083 11.1819 4.305C11.4773 4.98917 11.625 5.72021 11.625 6.49813C11.625 7.27562 11.4775 8.00688 11.1825 8.69187C10.8871 9.37646 10.4862 9.97208 9.98 10.4787C9.47417 10.9854 8.87917 11.3865 8.195 11.6819C7.51083 11.9773 6.77979 12.125 6.00187 12.125ZM6 11.5C7.39583 11.5 8.57812 11.0156 9.54688 10.0469C10.5156 9.07812 11 7.89583 11 6.5C11 5.10417 10.5156 3.92187 9.54688 2.95312C8.57812 1.98437 7.39583 1.5 6 1.5C4.60417 1.5 3.42187 1.98437 2.45312 2.95312C1.48437 3.92187 1 5.10417 1 6.5C1 7.89583 1.48437 9.07812 2.45312 10.0469C3.42187 11.0156 4.60417 11.5 6 11.5Z" fill="#F23030"/>
</svg>
