<svg width="37" height="37" viewBox="0 0 37 37" fill="none" xmlns="http://www.w3.org/2000/svg">
<path d="M19.725 36.7443H17.0709C16.6744 36.744 16.2892 36.613 15.9747 36.3716C15.6603 36.1302 15.4342 35.7919 15.3314 35.4091L13.7511 29.625L8.64694 32.5548C8.30473 32.7499 7.90819 32.8279 7.51758 32.7771C7.12697 32.7262 6.76363 32.5493 6.48277 32.2731L4.59423 30.3968C4.31298 30.1166 4.13195 29.7515 4.07917 29.3581C4.02639 28.9646 4.10481 28.5647 4.30227 28.2204L7.30148 23.0243L7.28923 22.9917L1.5991 21.4665C1.21642 21.3641 0.878182 21.1384 0.636787 20.8243C0.395392 20.5102 0.264314 20.1252 0.263855 19.7291V17.0708C0.26452 16.6756 0.395217 16.2915 0.635786 15.9779C0.876356 15.6642 1.21343 15.4385 1.59502 15.3354L7.39131 13.749L4.45335 8.64079C4.25772 8.2976 4.17995 7.89975 4.23194 7.50815C4.28393 7.11656 4.46282 6.75279 4.74123 6.47254L6.61548 4.59829C6.89534 4.32002 7.25861 4.14104 7.64978 4.08869C8.04095 4.03633 8.4385 4.11349 8.78169 4.30837L13.992 7.29941H14.0165L15.5376 1.60316C15.6393 1.21992 15.8648 0.881033 16.179 0.639189C16.4932 0.397346 16.8785 0.266103 17.275 0.265869H19.9292C20.3259 0.266344 20.7113 0.39764 21.0258 0.639412C21.3403 0.881184 21.5663 1.21993 21.6687 1.60316L23.2244 7.39741L28.347 4.45537C28.6889 4.26046 29.0851 4.1825 29.4753 4.23336C29.8656 4.28421 30.2286 4.4611 30.5091 4.73712L32.3997 6.61341C32.6814 6.89384 32.8623 7.25959 32.9144 7.65364C32.9665 8.04769 32.8867 8.44789 32.6876 8.79187L29.6945 13.9614L29.7108 14.0063L35.3989 15.5294C35.781 15.6325 36.1186 15.8584 36.3596 16.1725C36.6005 16.4865 36.7314 16.871 36.7321 17.2668V19.921C36.7317 20.3174 36.6007 20.7027 36.3594 21.0171C36.118 21.3316 35.7797 21.5577 35.3969 21.6605L29.6046 23.2407L32.5426 28.3551C32.7401 28.6981 32.8189 29.0967 32.7669 29.4891C32.7148 29.8815 32.5348 30.2457 32.2547 30.5254L30.3825 32.3976C30.1016 32.6756 29.7375 32.8542 29.3457 32.9061C28.9539 32.9581 28.5559 32.8806 28.2122 32.6855L23.0284 29.7006L22.9917 29.7292L21.4706 35.4152C21.3658 35.7976 21.1381 36.1349 20.8227 36.375C20.5072 36.6152 20.1215 36.745 19.725 36.7443ZM17.2546 34.7027H19.5392L21.046 29.0758C21.1197 28.8046 21.2554 28.5542 21.4425 28.3444C21.6296 28.1347 21.8629 27.9713 22.124 27.8672L22.3976 27.761C22.6482 27.6618 22.918 27.6208 23.1868 27.6409C23.4555 27.6611 23.7162 27.7419 23.9492 27.8774L29.0738 30.8276L30.6847 29.2167L27.7794 24.1574C27.6417 23.9174 27.5612 23.6489 27.5442 23.3727C27.5272 23.0965 27.5741 22.82 27.6814 22.565L27.7876 22.3097C27.8929 22.0562 28.0553 21.8304 28.2621 21.6498C28.4689 21.4693 28.7145 21.3388 28.9799 21.2685L34.6966 19.7393V17.4526L29.0718 15.9479C28.8001 15.8744 28.5494 15.7385 28.3395 15.551C28.1297 15.3635 27.9665 15.1296 27.8631 14.8679L27.7569 14.5984C27.6581 14.3466 27.6173 14.0759 27.6374 13.8062C27.6576 13.5365 27.7382 13.2748 27.8733 13.0406L30.8317 7.92008L29.1984 6.30716L24.135 9.21653C23.8979 9.35345 23.6325 9.4342 23.3593 9.45261C23.086 9.47101 22.8122 9.42657 22.5589 9.3227L22.3241 9.22674C22.0677 9.12087 21.839 8.95759 21.6557 8.74946C21.4723 8.54134 21.3392 8.29391 21.2665 8.02624L19.7393 2.29733H17.4629L15.9561 7.93641C15.8832 8.21332 15.7453 8.46887 15.5539 8.6819C15.3625 8.89493 15.1232 9.0593 14.8556 9.16141L14.6106 9.25329C14.3624 9.34912 14.0959 9.38822 13.8306 9.36773C13.5653 9.34724 13.3079 9.26768 13.0774 9.13487L7.92827 6.17241L6.3174 7.78329L9.22065 12.8385C9.35861 13.0803 9.43886 13.3508 9.45515 13.6288C9.47144 13.9068 9.42333 14.1848 9.31456 14.4412L9.21044 14.6862C9.10344 14.9346 8.94146 15.1556 8.7367 15.3324C8.53194 15.5093 8.28973 15.6373 8.02831 15.707L2.31165 17.2546V19.5433L7.94052 21.05C8.21069 21.1235 8.4602 21.2585 8.66953 21.4445C8.87885 21.6304 9.04232 21.8623 9.14715 22.1219L9.24515 22.369C9.34805 22.6221 9.39144 22.8955 9.37197 23.1681C9.3525 23.4406 9.27069 23.7051 9.13285 23.941L6.16427 29.0779L7.7976 30.6928L12.8405 27.7957C13.0827 27.6562 13.354 27.5753 13.633 27.5593C13.912 27.5434 14.1909 27.5928 14.4473 27.7038L14.6637 27.7937C14.925 27.8962 15.1584 28.0588 15.345 28.2685C15.5316 28.4782 15.6662 28.7289 15.7376 29.0003L17.2546 34.7027Z" fill="#D9D2D0"/>
<path d="M18.5 24.625C17.2886 24.625 16.1044 24.2658 15.0971 23.5928C14.0899 22.9197 13.3048 21.9631 12.8412 20.8439C12.3777 19.7247 12.2564 18.4932 12.4927 17.3051C12.729 16.1169 13.3124 15.0256 14.169 14.169C15.0256 13.3124 16.1169 12.729 17.3051 12.4927C18.4932 12.2564 19.7247 12.3777 20.8439 12.8412C21.9631 13.3048 22.9197 14.0899 23.5928 15.0971C24.2658 16.1044 24.625 17.2886 24.625 18.5C24.625 20.1245 23.9797 21.6824 22.831 22.831C21.6824 23.9797 20.1245 24.625 18.5 24.625ZM18.5 14.4167C17.6924 14.4167 16.9029 14.6562 16.2314 15.1048C15.5599 15.5535 15.0366 16.1912 14.7275 16.9374C14.4184 17.6835 14.3376 18.5045 14.4951 19.2966C14.6527 20.0887 15.0416 20.8163 15.6127 21.3874C16.1837 21.9584 16.9113 22.3473 17.7034 22.5049C18.4955 22.6624 19.3165 22.5816 20.0626 22.2725C20.8088 21.9635 21.4465 21.4401 21.8952 20.7686C22.3439 20.0971 22.5833 19.3076 22.5833 18.5C22.5833 17.417 22.1531 16.3784 21.3874 15.6127C20.6216 14.8469 19.583 14.4167 18.5 14.4167Z" fill="#D9D2D0"/>
</svg>
