<svg width="37" height="39" viewBox="0 0 37 39" fill="none" xmlns="http://www.w3.org/2000/svg">
<path d="M18.5 0.104157C20.9012 0.103422 23.2394 0.872417 25.1715 2.29828C27.1035 3.72413 28.5276 5.73176 29.2347 8.02648C29.9418 10.3212 29.8947 12.7822 29.1004 15.0482C28.306 17.3142 26.8062 19.2659 24.821 20.6168C28.2667 21.8806 31.2552 24.1467 33.402 27.1234C35.5488 30.1001 36.7555 33.6513 36.8669 37.3197C36.8773 37.5233 36.8469 37.7269 36.7776 37.9187C36.7082 38.1104 36.6013 38.2863 36.463 38.4362C36.3248 38.586 36.158 38.7068 35.9724 38.7913C35.7869 38.8758 35.5863 38.9224 35.3825 38.9284C35.1787 38.9344 34.9758 38.8996 34.7856 38.8261C34.5954 38.7526 34.4219 38.6419 34.275 38.5004C34.1282 38.3589 34.0112 38.1896 33.9307 38.0022C33.8502 37.8149 33.808 37.6134 33.8064 37.4095C33.6848 33.4312 32.019 29.6566 29.162 26.8855C26.3049 24.1145 22.4812 22.5647 18.5011 22.5647C14.5209 22.5647 10.6972 24.1145 7.84014 26.8855C4.9831 29.6566 3.31728 33.4312 3.1957 37.4095C3.18351 37.8156 3.0105 38.2002 2.71472 38.4788C2.41894 38.7573 2.02462 38.907 1.61851 38.8948C1.2124 38.8826 0.827757 38.7096 0.549207 38.4138C0.270657 38.118 0.121014 37.7237 0.133197 37.3176C0.244974 33.6496 1.4519 30.0989 3.59864 27.1226C5.74539 24.1462 8.73371 21.8804 12.179 20.6168C10.1939 19.2659 8.69407 17.3142 7.8997 15.0482C7.10533 12.7822 7.05825 10.3212 7.76538 8.02648C8.4725 5.73176 9.89658 3.72413 11.8286 2.29828C13.7606 0.872417 16.0988 0.103422 18.5 0.104157ZM10.3334 11.3333C10.3334 13.4993 11.1938 15.5765 12.7253 17.108C14.2569 18.6396 16.3341 19.5 18.5 19.5C20.666 19.5 22.7432 18.6396 24.2747 17.108C25.8063 15.5765 26.6667 13.4993 26.6667 11.3333C26.6667 9.16739 25.8063 7.09016 24.2747 5.55862C22.7432 4.02707 20.666 3.16666 18.5 3.16666C16.3341 3.16666 14.2569 4.02707 12.7253 5.55862C11.1938 7.09016 10.3334 9.16739 10.3334 11.3333Z" fill="#D9D2D0"/>
</svg>
