<svg width="25" height="26" viewBox="0 0 25 26" fill="none" xmlns="http://www.w3.org/2000/svg">
<path d="M5.21339 20.9811C5.72817 19.5246 7.11722 18.4811 8.75 18.4811C10.3827 18.4811 11.7719 19.5246 12.2866 20.9811H25V23.4811H12.2866C11.7719 24.9376 10.3827 25.9811 8.75 25.9811C7.11722 25.9811 5.72817 24.9376 5.21339 23.4811H0V20.9811H5.21339ZM12.7134 12.2311C13.2281 10.7746 14.6172 9.73108 16.25 9.73108C17.8827 9.73108 19.2719 10.7746 19.7866 12.2311H25V14.7311H19.7866C19.2719 16.1876 17.8827 17.2311 16.25 17.2311C14.6172 17.2311 13.2281 16.1876 12.7134 14.7311H0V12.2311H12.7134ZM5.21339 3.48108C5.72817 2.02459 7.11722 0.981079 8.75 0.981079C10.3827 0.981079 11.7719 2.02459 12.2866 3.48108H25V5.98108H12.2866C11.7719 7.43757 10.3827 8.48108 8.75 8.48108C7.11722 8.48108 5.72817 7.43757 5.21339 5.98108H0V3.48108H5.21339ZM8.75 5.98108C9.44035 5.98108 10 5.42143 10 4.73108C10 4.04073 9.44035 3.48108 8.75 3.48108C8.05965 3.48108 7.5 4.04073 7.5 4.73108C7.5 5.42143 8.05965 5.98108 8.75 5.98108ZM16.25 14.7311C16.9404 14.7311 17.5 14.1715 17.5 13.4811C17.5 12.7907 16.9404 12.2311 16.25 12.2311C15.5596 12.2311 15 12.7907 15 13.4811C15 14.1715 15.5596 14.7311 16.25 14.7311ZM8.75 23.4811C9.44035 23.4811 10 22.9215 10 22.2311C10 21.5407 9.44035 20.9811 8.75 20.9811C8.05965 20.9811 7.5 21.5407 7.5 22.2311C7.5 22.9215 8.05965 23.4811 8.75 23.4811Z" fill="#F23030"/>
</svg>
