<svg width="25" height="26" viewBox="0 0 25 26" fill="none" xmlns="http://www.w3.org/2000/svg">
<path d="M5.21339 20.5C5.72817 19.0435 7.11722 18 8.75 18C10.3827 18 11.7719 19.0435 12.2866 20.5H25V23H12.2866C11.7719 24.4565 10.3827 25.5 8.75 25.5C7.11722 25.5 5.72817 24.4565 5.21339 23H0V20.5H5.21339ZM12.7134 11.75C13.2281 10.2935 14.6172 9.25 16.25 9.25C17.8827 9.25 19.2719 10.2935 19.7866 11.75H25V14.25H19.7866C19.2719 15.7065 17.8827 16.75 16.25 16.75C14.6172 16.75 13.2281 15.7065 12.7134 14.25H0V11.75H12.7134ZM5.21339 3C5.72817 1.54351 7.11722 0.5 8.75 0.5C10.3827 0.5 11.7719 1.54351 12.2866 3H25V5.5H12.2866C11.7719 6.95649 10.3827 8 8.75 8C7.11722 8 5.72817 6.95649 5.21339 5.5H0V3H5.21339ZM8.75 5.5C9.44035 5.5 10 4.94035 10 4.25C10 3.55965 9.44035 3 8.75 3C8.05965 3 7.5 3.55965 7.5 4.25C7.5 4.94035 8.05965 5.5 8.75 5.5ZM16.25 14.25C16.9404 14.25 17.5 13.6904 17.5 13C17.5 12.3096 16.9404 11.75 16.25 11.75C15.5596 11.75 15 12.3096 15 13C15 13.6904 15.5596 14.25 16.25 14.25ZM8.75 23C9.44035 23 10 22.4404 10 21.75C10 21.0596 9.44035 20.5 8.75 20.5C8.05965 20.5 7.5 21.0596 7.5 21.75C7.5 22.4404 8.05965 23 8.75 23Z" fill="#F23030"/>
</svg>
