<svg width="49" height="49" viewBox="0 0 49 49" fill="none" xmlns="http://www.w3.org/2000/svg">
<path d="M38.7917 17.7829L27.9034 9.31409C26.9479 8.57074 25.7719 8.16714 24.5612 8.16714C23.3506 8.16714 22.1746 8.57074 21.219 9.31409L10.3288 17.7829C9.67431 18.2919 9.1448 18.9437 8.7807 19.6885C8.41659 20.4334 8.22751 21.2516 8.22791 22.0806V36.7806C8.22791 37.8636 8.65811 38.9022 9.42389 39.668C10.1897 40.4338 11.2283 40.864 12.3112 40.864H36.8112C37.8942 40.864 38.9328 40.4338 39.6986 39.668C40.4644 38.9022 40.8946 37.8636 40.8946 36.7806V22.0806C40.8946 20.4003 40.1187 18.814 38.7917 17.7829Z" stroke="#F23030" stroke-width="5" stroke-linecap="round" stroke-linejoin="round"/>
<path d="M32.6666 30.625C28.1546 33.3465 20.8413 33.3465 16.3333 30.625" stroke="#F23030" stroke-width="5" stroke-linecap="round" stroke-linejoin="round"/>
</svg>
