<svg width="13" height="13" viewBox="0 0 13 13" fill="none" xmlns="http://www.w3.org/2000/svg">
<path d="M12.25 0.856079V8.66858C12.25 9.24874 12.0195 9.80514 11.6093 10.2154C11.1991 10.6256 10.6427 10.8561 10.0625 10.8561C9.48234 10.8561 8.92594 10.6256 8.5157 10.2154C8.10547 9.80514 7.875 9.24874 7.875 8.66858C7.875 8.08842 8.10547 7.53202 8.5157 7.12178C8.92594 6.71155 9.48234 6.48108 10.0625 6.48108C10.4 6.48108 10.7188 6.55608 11 6.69358V3.02483L4.75 4.35608V9.91858C4.75 10.4987 4.51953 11.0551 4.1093 11.4654C3.69906 11.8756 3.14266 12.1061 2.5625 12.1061C1.98234 12.1061 1.42594 11.8756 1.0157 11.4654C0.605468 11.0551 0.375 10.4987 0.375 9.91858C0.375 9.33842 0.605468 8.78202 1.0157 8.37178C1.42594 7.96155 1.98234 7.73108 2.5625 7.73108C2.9 7.73108 3.21875 7.80608 3.5 7.94358V2.73108L12.25 0.856079Z" fill="#F23030"/>
</svg>
