<svg width="42" height="42" viewBox="0 0 42 42" fill="none" xmlns="http://www.w3.org/2000/svg">
<path d="M28.1563 0.0625C24.5023 0.0660473 20.9991 1.51914 18.4154 4.10285C15.8317 6.68657 14.3786 10.1898 14.375 13.8438C14.3764 14.4467 14.4167 15.049 14.4956 15.6468L1.19095 33.7921C0.755476 34.3811 0.546575 35.1071 0.602458 35.8375C0.658341 36.5678 0.975274 37.2537 1.49529 37.7695L4.23048 40.5047C4.74635 41.0247 5.43217 41.3417 6.16252 41.3976C6.89287 41.4534 7.61893 41.2445 8.20791 40.8091L26.3551 27.5006C26.9522 27.5807 27.5538 27.6222 28.1563 27.625C31.8113 27.625 35.3166 26.173 37.9011 23.5886C40.4856 21.0041 41.9375 17.4988 41.9375 13.8438C41.9375 10.1887 40.4856 6.68342 37.9011 4.09893C35.3166 1.51445 31.8113 0.0625 28.1563 0.0625ZM38.875 13.8438C38.8778 16.1575 38.128 18.4094 36.7389 20.2597L21.7422 5.26109C23.3353 4.07129 25.2279 3.34805 27.2084 3.17222C29.189 2.9964 31.1794 3.37493 32.9571 4.26549C34.7349 5.15604 36.2298 6.52353 37.2749 8.21504C38.32 9.90655 38.874 11.8554 38.875 13.8438ZM6.3972 38.3438L3.65627 35.6028L15.5503 19.3945C16.944 22.541 19.459 25.056 22.6055 26.4498L6.3972 38.3438ZM17.4375 13.8438C17.4345 11.5306 18.1843 9.2792 19.5736 7.42973L34.5684 22.4245C32.9754 23.6136 31.0832 24.3364 29.1031 24.512C27.1231 24.6876 25.1332 24.3091 23.3558 23.4189C21.5785 22.5286 20.0837 21.1617 19.0386 19.4707C17.9934 17.7798 17.4391 15.8316 17.4375 13.8438ZM16.9877 25.0104C17.2747 25.2975 17.4359 25.6869 17.4359 26.0928C17.4359 26.4987 17.2747 26.8881 16.9877 27.1752L15.4565 28.7064C15.3157 28.8546 15.1467 28.9731 14.9594 29.0549C14.7721 29.1368 14.5703 29.1803 14.3659 29.1829C14.1616 29.1855 13.9587 29.1472 13.7694 29.0702C13.5801 28.9932 13.4081 28.879 13.2636 28.7345C13.1191 28.59 13.0049 28.418 12.9279 28.2287C12.8509 28.0394 12.8126 27.8365 12.8152 27.6322C12.8178 27.4278 12.8613 27.226 12.9432 27.0387C13.025 26.8514 13.1435 26.6824 13.2917 26.5416L14.8229 25.0104C14.965 24.8676 15.1339 24.7543 15.3199 24.6769C15.5059 24.5995 15.7054 24.5596 15.9068 24.5594C16.1083 24.5592 16.3078 24.5988 16.4939 24.6758C16.6801 24.7529 16.8492 24.8659 16.9915 25.0085L16.9877 25.0104Z" fill="#D9D2D0"/>
</svg>
