<svg width="49" height="49" viewBox="0 0 49 49" fill="none" xmlns="http://www.w3.org/2000/svg">
<path d="M32.1563 3.0625C28.5023 3.06605 24.9991 4.51914 22.4154 7.10285C19.8317 9.68657 18.3786 13.1898 18.375 16.8438C18.3764 17.4467 18.4167 18.049 18.4956 18.6468L5.19095 36.7921C4.75548 37.3811 4.54657 38.1071 4.60246 38.8375C4.65834 39.5678 4.97527 40.2537 5.49529 40.7695L8.23048 43.5047C8.74635 44.0247 9.43217 44.3417 10.1625 44.3976C10.8929 44.4534 11.6189 44.2445 12.2079 43.8091L30.3551 30.5006C30.9522 30.5807 31.5538 30.6222 32.1563 30.625C35.8113 30.625 39.3166 29.173 41.9011 26.5886C44.4856 24.0041 45.9375 20.4988 45.9375 16.8438C45.9375 13.1887 44.4856 9.68342 41.9011 7.09893C39.3166 4.51445 35.8113 3.0625 32.1563 3.0625ZM42.875 16.8438C42.8778 19.1575 42.128 21.4094 40.7389 23.2597L25.7422 8.26109C27.3353 7.07129 29.2279 6.34805 31.2084 6.17222C33.189 5.9964 35.1794 6.37493 36.9571 7.26549C38.7349 8.15604 40.2298 9.52353 41.2749 11.215C42.32 12.9066 42.874 14.8554 42.875 16.8438ZM10.3972 41.3438L7.65627 38.6028L19.5503 22.3945C20.944 25.541 23.459 28.056 26.6055 29.4498L10.3972 41.3438ZM21.4375 16.8438C21.4345 14.5306 22.1843 12.2792 23.5736 10.4297L38.5684 25.4245C36.9754 26.6136 35.0832 27.3364 33.1031 27.512C31.1231 27.6876 29.1332 27.3091 27.3558 26.4189C25.5785 25.5286 24.0837 24.1617 23.0386 22.4707C21.9934 20.7798 21.4391 18.8316 21.4375 16.8438ZM20.9877 28.0104C21.2747 28.2975 21.4359 28.6869 21.4359 29.0928C21.4359 29.4987 21.2747 29.8881 20.9877 30.1752L19.4565 31.7064C19.3157 31.8546 19.1467 31.9731 18.9594 32.0549C18.7721 32.1368 18.5703 32.1803 18.3659 32.1829C18.1616 32.1855 17.9587 32.1472 17.7694 32.0702C17.5801 31.9932 17.4081 31.879 17.2636 31.7345C17.1191 31.59 17.0049 31.418 16.9279 31.2287C16.8509 31.0394 16.8126 30.8365 16.8152 30.6322C16.8178 30.4278 16.8613 30.226 16.9432 30.0387C17.025 29.8514 17.1435 29.6824 17.2917 29.5416L18.8229 28.0104C18.965 27.8676 19.1339 27.7543 19.3199 27.6769C19.5059 27.5995 19.7054 27.5596 19.9068 27.5594C20.1083 27.5592 20.3078 27.5988 20.4939 27.6758C20.6801 27.7529 20.8492 27.8659 20.9915 28.0085L20.9877 28.0104Z" fill="#D9D2D0"/>
</svg>
