<svg width="49" height="49" viewBox="0 0 49 49" fill="none" xmlns="http://www.w3.org/2000/svg">
<path d="M33.4578 6.125C29.9742 6.125 26.6916 7.72324 24.5 10.3264C22.3084 7.72324 19.0258 6.125 15.5422 6.125C9.36934 6.125 4.59375 10.9293 4.59375 17.1404C4.59375 24.7488 11.36 30.8547 21.6098 40.2719L24.5 42.875L27.3902 40.2719C37.64 30.8547 44.4062 24.7488 44.4062 17.1404C44.4062 10.9293 39.6307 6.125 33.4578 6.125ZM25.725 37.64L25.323 38.0133L24.5 38.7598L23.677 38.0133L23.275 37.64C18.4516 33.209 14.2789 29.3809 11.5322 25.9643C8.85254 22.6434 7.66582 19.9254 7.66582 17.1404C7.66582 14.9488 8.46973 12.9391 9.93398 11.4652C11.3887 9.99141 13.3793 9.1875 15.5422 9.1875C18.04 9.1875 20.5188 10.3551 22.1553 12.2979L24.5 15.0828L26.8447 12.2979C28.4813 10.3455 30.96 9.1875 33.4578 9.1875C35.6207 9.1875 37.6113 9.99141 39.0756 11.4652C40.5398 12.9391 41.3438 14.9584 41.3438 17.1404C41.3438 19.9158 40.1475 22.6434 37.4773 25.9643C34.7211 29.3809 30.558 33.209 25.725 37.64Z" fill="#D9D2D0"/>
</svg>
