<svg width="49" height="49" viewBox="0 0 49 49" fill="none" xmlns="http://www.w3.org/2000/svg">
<path d="M29.8594 35.6016C29.1225 35.6016 28.5195 36.2045 28.5195 36.9414C28.5195 37.8889 27.7443 38.6641 26.7969 38.6641H8.99609C8.04863 38.6641 7.27344 37.8889 7.27344 36.9414V12.0586C7.27344 11.1111 8.04863 10.3359 8.99609 10.3359H26.7969C27.7443 10.3359 28.5195 11.1111 28.5195 12.0586C28.5195 12.7955 29.1225 13.3984 29.8594 13.3984C30.5963 13.3984 31.1992 12.7955 31.1992 12.0586C31.1992 9.62773 29.2277 7.65625 26.7969 7.65625H8.99609C6.56523 7.65625 4.59375 9.62773 4.59375 12.0586V36.9414C4.59375 39.3723 6.56523 41.3438 8.99609 41.3438H26.7969C29.2277 41.3438 31.1992 39.3723 31.1992 36.9414C31.1992 36.2045 30.5963 35.6016 29.8594 35.6016Z" fill="#D9D2D0"/>
<path d="M35.6877 15.1307C35.4389 14.8818 35.1039 14.7383 34.7402 14.7383C34.3861 14.7383 34.0416 14.8723 33.7928 15.1307C33.2664 15.657 33.2664 16.4992 33.7928 17.0256L40.0326 23.1697H15.5039C14.767 23.1697 14.1641 23.7727 14.1641 24.5096C14.1641 25.2465 14.767 25.8494 15.5039 25.8494H40.0613L33.9746 31.984C33.4578 32.5008 33.4578 33.3525 33.9746 33.8789L33.9842 33.8885C34.2426 34.1277 34.5775 34.2617 34.9221 34.2617C35.2857 34.2617 35.6207 34.1277 35.8695 33.8693L43.7746 25.9834C44.1861 25.5719 44.3967 25.0934 44.3967 24.5766C44.3967 24.0693 44.1766 23.5908 43.7746 23.1889L35.6877 15.1307Z" fill="#D9D2D0"/>
</svg>
