<svg width="25" height="23" viewBox="0 0 25 23" fill="none" xmlns="http://www.w3.org/2000/svg">
<path fill-rule="evenodd" clip-rule="evenodd" d="M12.4375 0.231079C12.6861 0.231079 12.9246 0.329851 13.1004 0.505667C13.2762 0.681482 13.375 0.919939 13.375 1.16858V21.7936C13.375 22.0422 13.2762 22.2807 13.1004 22.4565C12.9246 22.6323 12.6861 22.7311 12.4375 22.7311C12.1889 22.7311 11.9504 22.6323 11.7746 22.4565C11.5988 22.2807 11.5 22.0422 11.5 21.7936V1.16858C11.5 0.919939 11.5988 0.681482 11.7746 0.505667C11.9504 0.329851 12.1889 0.231079 12.4375 0.231079ZM8.6875 3.98108C8.93614 3.98108 9.1746 4.07985 9.35041 4.25567C9.52623 4.43148 9.625 4.66994 9.625 4.91858V18.0436C9.625 18.2922 9.52623 18.5307 9.35041 18.7065C9.1746 18.8823 8.93614 18.9811 8.6875 18.9811C8.43886 18.9811 8.2004 18.8823 8.02459 18.7065C7.84877 18.5307 7.75 18.2922 7.75 18.0436V4.91858C7.75 4.66994 7.84877 4.43148 8.02459 4.25567C8.2004 4.07985 8.43886 3.98108 8.6875 3.98108ZM16.1875 3.98108C16.4361 3.98108 16.6746 4.07985 16.8504 4.25567C17.0262 4.43148 17.125 4.66994 17.125 4.91858V18.0436C17.125 18.2922 17.0262 18.5307 16.8504 18.7065C16.6746 18.8823 16.4361 18.9811 16.1875 18.9811C15.9389 18.9811 15.7004 18.8823 15.5246 18.7065C15.3488 18.5307 15.25 18.2922 15.25 18.0436V4.91858C15.25 4.66994 15.3488 4.43148 15.5246 4.25567C15.7004 4.07985 15.9389 3.98108 16.1875 3.98108ZM4.9375 6.79358C5.18614 6.79358 5.4246 6.89235 5.60041 7.06817C5.77623 7.24398 5.875 7.48244 5.875 7.73108V15.2311C5.875 15.4797 5.77623 15.7182 5.60041 15.894C5.4246 16.0698 5.18614 16.1686 4.9375 16.1686C4.68886 16.1686 4.4504 16.0698 4.27459 15.894C4.09877 15.7182 4 15.4797 4 15.2311V7.73108C4 7.48244 4.09877 7.24398 4.27459 7.06817C4.4504 6.89235 4.68886 6.79358 4.9375 6.79358ZM19.9375 6.79358C20.1861 6.79358 20.4246 6.89235 20.6004 7.06817C20.7762 7.24398 20.875 7.48244 20.875 7.73108V15.2311C20.875 15.4797 20.7762 15.7182 20.6004 15.894C20.4246 16.0698 20.1861 16.1686 19.9375 16.1686C19.6889 16.1686 19.4504 16.0698 19.2746 15.894C19.0988 15.7182 19 15.4797 19 15.2311V7.73108C19 7.48244 19.0988 7.24398 19.2746 7.06817C19.4504 6.89235 19.6889 6.79358 19.9375 6.79358ZM1.1875 8.66858C1.43614 8.66858 1.6746 8.76735 1.85041 8.94317C2.02623 9.11898 2.125 9.35744 2.125 9.60608V13.3561C2.125 13.6047 2.02623 13.8432 1.85041 14.019C1.6746 14.1948 1.43614 14.2936 1.1875 14.2936C0.93886 14.2936 0.700403 14.1948 0.524588 14.019C0.348772 13.8432 0.25 13.6047 0.25 13.3561V9.60608C0.25 9.35744 0.348772 9.11898 0.524588 8.94317C0.700403 8.76735 0.93886 8.66858 1.1875 8.66858ZM23.6875 8.66858C23.9361 8.66858 24.1746 8.76735 24.3504 8.94317C24.5262 9.11898 24.625 9.35744 24.625 9.60608V13.3561C24.625 13.6047 24.5262 13.8432 24.3504 14.019C24.1746 14.1948 23.9361 14.2936 23.6875 14.2936C23.4389 14.2936 23.2004 14.1948 23.0246 14.019C22.8488 13.8432 22.75 13.6047 22.75 13.3561V9.60608C22.75 9.35744 22.8488 9.11898 23.0246 8.94317C23.2004 8.76735 23.4389 8.66858 23.6875 8.66858Z" fill="#F23030"/>
</svg>
