<svg width="13" height="12" viewBox="0 0 13 12" fill="none" xmlns="http://www.w3.org/2000/svg">
<path d="M12.125 0.375V8.1875C12.125 8.76766 11.8945 9.32406 11.4843 9.7343C11.0741 10.1445 10.5177 10.375 9.9375 10.375C9.35734 10.375 8.80094 10.1445 8.3907 9.7343C7.98047 9.32406 7.75 8.76766 7.75 8.1875C7.75 7.60734 7.98047 7.05094 8.3907 6.6407C8.80094 6.23047 9.35734 6 9.9375 6C10.275 6 10.5938 6.075 10.875 6.2125V2.54375L4.625 3.875V9.4375C4.625 10.0177 4.39453 10.5741 3.9843 10.9843C3.57406 11.3945 3.01766 11.625 2.4375 11.625C1.85734 11.625 1.30094 11.3945 0.890704 10.9843C0.480468 10.5741 0.25 10.0177 0.25 9.4375C0.25 8.85734 0.480468 8.30094 0.890704 7.8907C1.30094 7.48047 1.85734 7.25 2.4375 7.25C2.775 7.25 3.09375 7.325 3.375 7.4625V2.25L12.125 0.375Z" fill="#F23030"/>
</svg>
