<svg width="32" height="39" viewBox="0 0 32 39" fill="none" xmlns="http://www.w3.org/2000/svg">
<path d="M19.0117 33.3136C18.4279 33.3136 17.9207 33.7156 17.7963 34.2898C17.7006 34.7205 17.5379 35.0746 17.3178 35.333C17.1933 35.4765 16.8297 35.8976 15.7769 35.8976C14.7242 35.8976 14.3605 35.467 14.2361 35.333C14.016 35.0746 13.8533 34.7205 13.7576 34.2898C13.6332 33.7156 13.126 33.3136 12.5422 33.3136C11.7383 33.3136 11.1545 34.0601 11.3267 34.8353C11.8053 36.9695 13.3365 38.3859 15.7769 38.3859C18.2174 38.3859 19.7486 36.9791 20.2271 34.8353C20.3994 34.0601 19.806 33.3136 19.0117 33.3136ZM30.7162 28.4519C29.2424 26.5092 26.3426 25.3703 26.3426 16.6709C26.3426 7.74177 22.3996 4.15291 18.7246 3.29158C18.3801 3.20544 18.1312 3.0906 18.1312 2.72693V2.44939C18.1312 1.17654 17.0976 0.0950928 15.8344 0.0950928H15.7769C14.5137 0.0950928 13.4801 1.17654 13.4801 2.44939V2.72693C13.4801 3.08103 13.2312 3.20544 12.8867 3.29158C9.20214 4.16248 5.26874 7.74177 5.26874 16.6709C5.26874 25.3703 2.36893 26.4996 0.895104 28.4519C-0.0523571 29.7056 0.847252 31.4953 2.41678 31.4953H29.2232C30.764 31.4953 31.6541 29.6961 30.7162 28.4519ZM26.9838 29.007H4.66581C4.30214 29.007 4.11073 28.5859 4.34999 28.3084C5.01991 27.5428 5.75682 26.5379 6.35975 25.1119C7.2785 22.949 7.72831 20.1832 7.72831 16.6709C7.72831 13.1011 8.39823 10.3066 9.7285 8.36384C10.9152 6.62205 12.3986 5.96169 13.4322 5.72244C14.2361 5.53103 14.8103 5.16736 15.2123 4.71755C15.5185 4.37302 16.0449 4.35388 16.3512 4.69841C16.8392 5.24392 17.4996 5.56931 18.1504 5.72244C19.184 5.96169 20.6674 6.62205 21.8541 8.36384C23.1844 10.3066 23.8543 13.1011 23.8543 16.6709C23.8543 20.1832 24.3041 22.949 25.2228 25.1119C25.8449 26.5666 26.601 27.5906 27.2805 28.3562C27.491 28.6146 27.3187 29.007 26.9838 29.007Z" fill="#D9D2D0"/>
</svg>
