<svg width="21" height="26" viewBox="0 0 21 26" fill="none" xmlns="http://www.w3.org/2000/svg">
<path d="M3.70251 25.425C3.29213 25.425 2.88577 25.3442 2.50663 25.1871C2.12749 25.0301 1.78299 24.7999 1.49281 24.5097C1.20262 24.2195 0.972437 23.875 0.815391 23.4959C0.658345 23.1167 0.577515 22.7104 0.577515 22.3V3.7C0.577589 3.13067 0.733199 2.57217 1.02754 2.08482C1.32188 1.59747 1.74377 1.19979 2.24764 0.934734C2.75151 0.669674 3.31822 0.547302 3.88657 0.580835C4.45492 0.614367 5.00331 0.80253 5.47252 1.125L19.0688 10.4238C19.4864 10.7109 19.828 11.0954 20.0639 11.544C20.2999 11.9926 20.4232 12.4919 20.4232 12.9988C20.4232 13.5056 20.2999 14.0049 20.0639 14.4535C19.828 14.9021 19.4864 15.2866 19.0688 15.5738L5.47127 24.875C4.95081 25.2329 4.33413 25.4246 3.70251 25.425ZM3.70251 1.82C3.39715 1.8211 3.09671 1.89707 2.82751 2.04125C2.52355 2.19799 2.2691 2.43608 2.09253 2.72897C1.91596 3.02185 1.82421 3.35802 1.82751 3.7V22.2988C1.82772 22.6403 1.92124 22.9754 2.09796 23.2677C2.27468 23.56 2.52789 23.7985 2.83026 23.9574C3.13262 24.1163 3.47265 24.1895 3.81363 24.1693C4.1546 24.1491 4.48357 24.0361 4.76502 23.8425L18.3613 14.5425C18.6116 14.3701 18.8163 14.1395 18.9577 13.8705C19.0991 13.6014 19.173 13.3021 19.173 12.9981C19.173 12.6942 19.0991 12.3948 18.9577 12.1258C18.8163 11.8567 18.6116 11.6261 18.3613 11.4538L4.76626 2.1575C4.45518 1.93948 4.08489 1.82172 3.70502 1.82H3.70251Z" fill="#F23030"/>
</svg>
