<svg width="35" height="36" viewBox="0 0 35 36" fill="none" xmlns="http://www.w3.org/2000/svg">
<path d="M30.625 17.9811C30.625 10.735 24.7461 4.85608 17.5 4.85608C10.2539 4.85608 4.375 10.735 4.375 17.9811C4.375 25.2272 10.2539 31.1061 17.5 31.1061C24.7461 31.1061 30.625 25.2272 30.625 17.9811Z" stroke="#F29494" stroke-width="5" stroke-miterlimit="10"/>
<path d="M14.7875 23.3432L22.6112 18.6168C22.7203 18.5504 22.8104 18.457 22.873 18.3457C22.9355 18.2343 22.9684 18.1088 22.9684 17.9811C22.9684 17.8534 22.9355 17.7278 22.873 17.6165C22.8104 17.5052 22.7203 17.4118 22.6112 17.3453L14.7875 12.619C14.6754 12.5518 14.5474 12.5156 14.4167 12.5142C14.2859 12.5129 14.1572 12.5463 14.0436 12.611C13.9301 12.6758 13.8358 12.7696 13.7705 12.8829C13.7052 12.9961 13.6711 13.1247 13.6719 13.2554V22.7068C13.6711 22.8375 13.7052 22.9661 13.7705 23.0793C13.8358 23.1925 13.9301 23.2864 14.0436 23.3511C14.1572 23.4159 14.2859 23.4493 14.4167 23.4479C14.5474 23.4465 14.6754 23.4104 14.7875 23.3432Z" fill="#F29494"/>
</svg>
