<svg width="41" height="41" viewBox="0 0 41 41" fill="none" xmlns="http://www.w3.org/2000/svg">
<path d="M19.3499 21.1819C19.4865 20.7272 19.724 20.3093 20.0447 19.9594C20.37 19.6305 20.7364 19.345 21.1347 19.1097C21.401 18.942 21.649 18.7467 21.8743 18.527C22.0927 18.3151 22.2696 18.0642 22.3959 17.7874C22.5252 17.4977 22.5905 17.1836 22.5875 16.8664C22.5974 16.4944 22.4967 16.1278 22.2981 15.813C22.1117 15.5183 21.8482 15.2801 21.5361 15.1244C21.2082 14.9599 20.8455 14.8768 20.4787 14.8819C20.1306 14.8803 19.7864 14.9547 19.4701 15.0999C19.1473 15.2489 18.8728 15.4854 18.6775 15.7825C18.5809 15.9231 18.5047 16.0768 18.4513 16.2389C18.3845 16.4484 18.2535 16.6317 18.077 16.7629C17.9004 16.8942 17.6872 16.9667 17.4672 16.9703C17.3019 16.971 17.1388 16.9319 16.9917 16.8563C16.8447 16.7807 16.7179 16.6709 16.6223 16.536C16.5266 16.4012 16.4647 16.2453 16.4419 16.0815C16.4191 15.9177 16.436 15.7509 16.4913 15.595C16.5837 15.3445 16.7054 15.1058 16.8539 14.8839C17.2326 14.3206 17.7602 13.8734 18.378 13.5922C19.0379 13.2948 19.7549 13.1453 20.4787 13.1541C21.2401 13.1372 21.9951 13.2983 22.6832 13.6248C23.2864 13.9127 23.7957 14.3655 24.1523 14.9308C24.5098 15.5195 24.6915 16.1982 24.6759 16.8868C24.6833 17.3583 24.6017 17.827 24.4355 18.2682C24.2795 18.6719 24.0486 19.0424 23.755 19.3603C23.4451 19.6937 23.0882 19.98 22.6955 20.21C22.3503 20.4186 22.0339 20.6713 21.7541 20.9618C21.5092 21.2251 21.3304 21.5429 21.2325 21.8889C21.1902 22.079 21.1596 22.2716 21.1408 22.4655C21.112 22.7063 20.9959 22.9281 20.8146 23.0892C20.6333 23.2502 20.3992 23.3393 20.1567 23.3396C20.0189 23.3399 19.8826 23.3114 19.7565 23.2559C19.6304 23.2003 19.5173 23.1189 19.4246 23.017C19.3319 22.915 19.2616 22.7948 19.2182 22.664C19.1748 22.5332 19.1592 22.3948 19.1726 22.2577C19.1988 21.8944 19.2581 21.5343 19.3499 21.1819Z" fill="#D9D2D0"/>
<path d="M20.1282 27.3331C20.7887 27.3331 21.3242 26.7976 21.3242 26.1371C21.3242 25.4765 20.7887 24.941 20.1282 24.941C19.4677 24.941 18.9322 25.4765 18.9322 26.1371C18.9322 26.7976 19.4677 27.3331 20.1282 27.3331Z" fill="#D9D2D0"/>
<path d="M20.55 40.4811C16.5465 40.4811 12.633 39.2938 9.30431 37.0695C5.97564 34.8452 3.38137 31.6837 1.84959 27.9848C0.317813 24.286 -0.0826599 20.216 0.698821 16.2896C1.4803 12.3631 3.40863 8.75661 6.23993 5.92616C9.07123 3.09572 12.6783 1.16847 16.605 0.38818C20.5317 -0.392115 24.6016 0.0095878 28.2999 1.54248C31.9983 3.07538 35.159 5.67061 37.3823 8.99995C39.6057 12.3293 40.7917 16.2432 40.7905 20.2466C40.783 25.6119 38.6479 30.7551 34.8535 34.5484C31.0591 38.3416 25.9152 40.4751 20.55 40.4811ZM20.55 2.03955C16.9499 2.03955 13.4307 3.10703 10.4373 5.10703C7.44396 7.10702 5.11083 9.94971 3.73297 13.2756C2.35511 16.6016 1.99439 20.2614 2.69642 23.7923C3.39846 27.3232 5.13173 30.5667 7.67706 33.1126C10.2224 35.6585 13.4655 37.3925 16.9963 38.0953C20.527 38.7982 24.1869 38.4383 27.5132 37.0611C30.8394 35.684 33.6826 33.3515 35.6833 30.3586C37.6839 27.3657 38.7522 23.8467 38.753 20.2466C38.7492 15.4197 36.8303 10.7915 33.4175 7.37789C30.0047 3.96433 25.3769 2.0444 20.55 2.03955Z" fill="#D9D2D0"/>
</svg>
