<svg width="49" height="49" viewBox="0 0 49 49" fill="none" xmlns="http://www.w3.org/2000/svg">
<path d="M24.5 5.10416C26.9012 5.10342 29.2394 5.87242 31.1715 7.29828C33.1035 8.72413 34.5276 10.7318 35.2347 13.0265C35.9418 15.3212 35.8947 17.7822 35.1004 20.0482C34.306 22.3142 32.8062 24.2659 30.821 25.6168C34.2667 26.8806 37.2552 29.1467 39.402 32.1234C41.5488 35.1001 42.7555 38.6513 42.8669 42.3197C42.8773 42.5233 42.8469 42.7269 42.7776 42.9187C42.7082 43.1104 42.6013 43.2863 42.463 43.4362C42.3248 43.586 42.158 43.7068 41.9724 43.7913C41.7869 43.8758 41.5863 43.9224 41.3825 43.9284C41.1787 43.9344 40.9758 43.8996 40.7856 43.8261C40.5954 43.7526 40.4219 43.6419 40.275 43.5004C40.1282 43.3589 40.0112 43.1896 39.9307 43.0022C39.8502 42.8149 39.808 42.6134 39.8064 42.4095C39.6848 38.4312 38.019 34.6566 35.162 31.8855C32.3049 29.1145 28.4812 27.5647 24.5011 27.5647C20.5209 27.5647 16.6972 29.1145 13.8401 31.8855C10.9831 34.6566 9.31728 38.4312 9.1957 42.4095C9.18351 42.8156 9.0105 43.2002 8.71472 43.4788C8.41894 43.7573 8.02462 43.907 7.61851 43.8948C7.2124 43.8826 6.82776 43.7096 6.54921 43.4138C6.27066 43.118 6.12101 42.7237 6.1332 42.3176C6.24497 38.6496 7.4519 35.0989 9.59864 32.1226C11.7454 29.1462 14.7337 26.8804 18.179 25.6168C16.1939 24.2659 14.6941 22.3142 13.8997 20.0482C13.1053 17.7822 13.0583 15.3212 13.7654 13.0265C14.4725 10.7318 15.8966 8.72413 17.8286 7.29828C19.7606 5.87242 22.0988 5.10342 24.5 5.10416ZM16.3334 16.3333C16.3334 18.4993 17.1938 20.5765 18.7253 22.108C20.2569 23.6396 22.3341 24.5 24.5 24.5C26.666 24.5 28.7432 23.6396 30.2747 22.108C31.8063 20.5765 32.6667 18.4993 32.6667 16.3333C32.6667 14.1674 31.8063 12.0902 30.2747 10.5586C28.7432 9.02707 26.666 8.16666 24.5 8.16666C22.3341 8.16666 20.2569 9.02707 18.7253 10.5586C17.1938 12.0902 16.3334 14.1674 16.3334 16.3333Z" fill="#D9D2D0"/>
</svg>
