<svg width="33" height="28" viewBox="0 0 33 28" fill="none" xmlns="http://www.w3.org/2000/svg">
<path d="M2.03041 22.0923C2.01583 22.0355 2.00708 21.9757 2.00708 21.913C2.00708 21.7117 2.08875 21.5294 2.22146 21.3982C2.23312 21.385 4.28646 19.3317 5.13812 18.4815C5.42687 18.1927 5.8775 18.2146 6.16916 18.4815C6.45937 18.7484 6.43895 19.2427 6.16916 19.5125L4.49645 21.1838H27.3471C28.5546 21.1838 29.5346 20.2052 29.5346 18.9963V13.9811C29.5346 13.5786 29.8612 13.2519 30.2637 13.2519C30.6662 13.2519 30.9929 13.5786 30.9929 13.9811V18.9963C30.9929 21.0102 29.3596 22.6421 27.3471 22.6421H4.49645L6.16916 24.3148C6.45791 24.6036 6.43604 25.0542 6.16916 25.3459C5.90229 25.6361 5.40791 25.6157 5.13812 25.3459L2.22146 22.4292C2.12521 22.3373 2.06104 22.2207 2.03041 22.0923ZM30.971 5.89754C30.9856 5.95442 30.9929 6.01421 30.9929 6.07546C30.9929 6.27671 30.9112 6.459 30.7785 6.59171C30.7669 6.60337 28.7135 8.65816 27.8619 9.50837C27.5746 9.79712 27.1225 9.77525 26.8308 9.50837C26.5406 9.2415 26.561 8.74712 26.8308 8.47733L28.5035 6.80462H5.65291C4.44541 6.80462 3.46541 7.78462 3.46541 8.99212V14.0073C3.46541 14.4098 3.13875 14.7365 2.73625 14.7365C2.33375 14.7365 2.00708 14.4098 2.00708 14.0073V8.99212C2.00708 6.97817 3.64041 5.34629 5.65291 5.34629H28.5035L26.8323 3.67504C26.5435 3.38629 26.5654 2.93567 26.8323 2.644C27.0992 2.35379 27.5935 2.37421 27.8633 2.644L30.78 5.56067C30.8748 5.65254 30.9404 5.76921 30.971 5.89754Z" fill="#F29494" stroke="#F29494" stroke-width="3"/>
</svg>
