<svg width="25" height="24" viewBox="0 0 25 24" fill="none" xmlns="http://www.w3.org/2000/svg">
<path fill-rule="evenodd" clip-rule="evenodd" d="M12.4375 0.75C12.6861 0.75 12.9246 0.848772 13.1004 1.02459C13.2762 1.2004 13.375 1.43886 13.375 1.6875V22.3125C13.375 22.5611 13.2762 22.7996 13.1004 22.9754C12.9246 23.1512 12.6861 23.25 12.4375 23.25C12.1889 23.25 11.9504 23.1512 11.7746 22.9754C11.5988 22.7996 11.5 22.5611 11.5 22.3125V1.6875C11.5 1.43886 11.5988 1.2004 11.7746 1.02459C11.9504 0.848772 12.1889 0.75 12.4375 0.75ZM8.6875 4.5C8.93614 4.5 9.1746 4.59877 9.35041 4.77459C9.52623 4.9504 9.625 5.18886 9.625 5.4375V18.5625C9.625 18.8111 9.52623 19.0496 9.35041 19.2254C9.1746 19.4012 8.93614 19.5 8.6875 19.5C8.43886 19.5 8.2004 19.4012 8.02459 19.2254C7.84877 19.0496 7.75 18.8111 7.75 18.5625V5.4375C7.75 5.18886 7.84877 4.9504 8.02459 4.77459C8.2004 4.59877 8.43886 4.5 8.6875 4.5ZM16.1875 4.5C16.4361 4.5 16.6746 4.59877 16.8504 4.77459C17.0262 4.9504 17.125 5.18886 17.125 5.4375V18.5625C17.125 18.8111 17.0262 19.0496 16.8504 19.2254C16.6746 19.4012 16.4361 19.5 16.1875 19.5C15.9389 19.5 15.7004 19.4012 15.5246 19.2254C15.3488 19.0496 15.25 18.8111 15.25 18.5625V5.4375C15.25 5.18886 15.3488 4.9504 15.5246 4.77459C15.7004 4.59877 15.9389 4.5 16.1875 4.5ZM4.9375 7.3125C5.18614 7.3125 5.4246 7.41127 5.60041 7.58709C5.77623 7.7629 5.875 8.00136 5.875 8.25V15.75C5.875 15.9986 5.77623 16.2371 5.60041 16.4129C5.4246 16.5887 5.18614 16.6875 4.9375 16.6875C4.68886 16.6875 4.4504 16.5887 4.27459 16.4129C4.09877 16.2371 4 15.9986 4 15.75V8.25C4 8.00136 4.09877 7.7629 4.27459 7.58709C4.4504 7.41127 4.68886 7.3125 4.9375 7.3125ZM19.9375 7.3125C20.1861 7.3125 20.4246 7.41127 20.6004 7.58709C20.7762 7.7629 20.875 8.00136 20.875 8.25V15.75C20.875 15.9986 20.7762 16.2371 20.6004 16.4129C20.4246 16.5887 20.1861 16.6875 19.9375 16.6875C19.6889 16.6875 19.4504 16.5887 19.2746 16.4129C19.0988 16.2371 19 15.9986 19 15.75V8.25C19 8.00136 19.0988 7.7629 19.2746 7.58709C19.4504 7.41127 19.6889 7.3125 19.9375 7.3125ZM1.1875 9.1875C1.43614 9.1875 1.6746 9.28627 1.85041 9.46209C2.02623 9.6379 2.125 9.87636 2.125 10.125V13.875C2.125 14.1236 2.02623 14.3621 1.85041 14.5379C1.6746 14.7137 1.43614 14.8125 1.1875 14.8125C0.93886 14.8125 0.700403 14.7137 0.524588 14.5379C0.348772 14.3621 0.25 14.1236 0.25 13.875V10.125C0.25 9.87636 0.348772 9.6379 0.524588 9.46209C0.700403 9.28627 0.93886 9.1875 1.1875 9.1875ZM23.6875 9.1875C23.9361 9.1875 24.1746 9.28627 24.3504 9.46209C24.5262 9.6379 24.625 9.87636 24.625 10.125V13.875C24.625 14.1236 24.5262 14.3621 24.3504 14.5379C24.1746 14.7137 23.9361 14.8125 23.6875 14.8125C23.4389 14.8125 23.2004 14.7137 23.0246 14.5379C22.8488 14.3621 22.75 14.1236 22.75 13.875V10.125C22.75 9.87636 22.8488 9.6379 23.0246 9.46209C23.2004 9.28627 23.4389 9.1875 23.6875 9.1875Z" fill="#F23030"/>
</svg>
