<svg width="40" height="41" viewBox="0 0 40 41" fill="none" xmlns="http://www.w3.org/2000/svg">
<path d="M33.2 34.8912C33.9667 35.6579 35.15 34.4746 34.3833 33.7246L28.1333 27.4579C30.25 25.1079 31.5333 22.0079 31.5333 18.6079C31.5333 11.2912 25.5833 5.34125 18.2667 5.34125C10.95 5.34125 5 11.2912 5 18.6079C5 25.9246 10.95 31.8746 18.2667 31.8746C21.5667 31.8746 24.6167 30.6579 26.95 28.6412L33.2 34.8912ZM6.665 18.6079C6.665 12.2079 11.8817 7.00791 18.265 7.00791C24.665 7.00791 29.865 12.2079 29.865 18.6079C29.865 25.0079 24.665 30.2079 18.265 30.2079C11.8817 30.2079 6.665 25.0079 6.665 18.6079Z" fill="#D9D2D0"/>
</svg>
