<svg width="49" height="49" viewBox="0 0 49 49" fill="none" xmlns="http://www.w3.org/2000/svg">
<path d="M25.725 42.7443H23.0709C22.6744 42.744 22.2892 42.613 21.9747 42.3716C21.6603 42.1302 21.4342 41.7919 21.3314 41.4091L19.7511 35.625L14.6469 38.5548C14.3047 38.7499 13.9082 38.8279 13.5176 38.7771C13.127 38.7262 12.7636 38.5493 12.4828 38.2731L10.5942 36.3968C10.313 36.1166 10.132 35.7515 10.0792 35.3581C10.0264 34.9646 10.1048 34.5647 10.3023 34.2204L13.3015 29.0243L13.2892 28.9917L7.5991 27.4665C7.21642 27.3641 6.87818 27.1384 6.63679 26.8243C6.39539 26.5102 6.26431 26.1252 6.26385 25.7291V23.0708C6.26452 22.6756 6.39522 22.2915 6.63579 21.9779C6.87636 21.6642 7.21343 21.4385 7.59502 21.3354L13.3913 19.749L10.4534 14.6408C10.2577 14.2976 10.1799 13.8998 10.2319 13.5082C10.2839 13.1166 10.4628 12.7528 10.7412 12.4725L12.6155 10.5983C12.8953 10.32 13.2586 10.141 13.6498 10.0887C14.0409 10.0363 14.4385 10.1135 14.7817 10.3084L19.992 13.2994H20.0165L21.5376 7.60316C21.6393 7.21992 21.8648 6.88103 22.179 6.63919C22.4932 6.39735 22.8785 6.2661 23.275 6.26587H25.9292C26.3259 6.26634 26.7113 6.39764 27.0258 6.63941C27.3403 6.88118 27.5663 7.21993 27.6687 7.60316L29.2244 13.3974L34.347 10.4554C34.6889 10.2605 35.0851 10.1825 35.4753 10.2334C35.8656 10.2842 36.2286 10.4611 36.5091 10.7371L38.3997 12.6134C38.6814 12.8938 38.8623 13.2596 38.9144 13.6536C38.9665 14.0477 38.8867 14.4479 38.6876 14.7919L35.6945 19.9614L35.7108 20.0063L41.3989 21.5294C41.781 21.6325 42.1186 21.8584 42.3596 22.1725C42.6005 22.4865 42.7314 22.871 42.7321 23.2668V25.921C42.7317 26.3174 42.6007 26.7027 42.3594 27.0171C42.118 27.3316 41.7797 27.5577 41.3969 27.6605L35.6046 29.2407L38.5426 34.3551C38.7401 34.6981 38.8189 35.0967 38.7669 35.4891C38.7148 35.8815 38.5348 36.2457 38.2547 36.5254L36.3825 38.3976C36.1016 38.6756 35.7375 38.8542 35.3457 38.9061C34.9539 38.9581 34.5559 38.8806 34.2122 38.6855L29.0284 35.7006L28.9917 35.7292L27.4706 41.4152C27.3658 41.7976 27.1381 42.1349 26.8227 42.375C26.5072 42.6152 26.1215 42.745 25.725 42.7443ZM23.2546 40.7027H25.5392L27.046 35.0758C27.1197 34.8046 27.2554 34.5542 27.4425 34.3444C27.6296 34.1347 27.8629 33.9713 28.124 33.8672L28.3976 33.761C28.6482 33.6618 28.918 33.6208 29.1868 33.6409C29.4555 33.6611 29.7162 33.7419 29.9492 33.8774L35.0738 36.8276L36.6847 35.2167L33.7794 30.1574C33.6417 29.9174 33.5612 29.6489 33.5442 29.3727C33.5272 29.0965 33.5741 28.82 33.6814 28.565L33.7876 28.3097C33.8929 28.0562 34.0553 27.8304 34.2621 27.6498C34.4689 27.4693 34.7145 27.3388 34.9799 27.2685L40.6966 25.7393V23.4526L35.0718 21.9479C34.8001 21.8744 34.5494 21.7385 34.3395 21.551C34.1297 21.3635 33.9665 21.1296 33.8631 20.8679L33.7569 20.5984C33.6581 20.3466 33.6173 20.0759 33.6374 19.8062C33.6576 19.5365 33.7382 19.2748 33.8733 19.0406L36.8317 13.9201L35.1984 12.3072L30.135 15.2165C29.8979 15.3534 29.6325 15.4342 29.3593 15.4526C29.086 15.471 28.8122 15.4266 28.5589 15.3227L28.3241 15.2267C28.0677 15.1209 27.839 14.9576 27.6557 14.7495C27.4723 14.5413 27.3392 14.2939 27.2665 14.0262L25.7393 8.29733H23.4629L21.9561 13.9364C21.8832 14.2133 21.7453 14.4689 21.5539 14.6819C21.3625 14.8949 21.1232 15.0593 20.8556 15.1614L20.6106 15.2533C20.3624 15.3491 20.0959 15.3882 19.8306 15.3677C19.5653 15.3472 19.3079 15.2677 19.0774 15.1349L13.9283 12.1724L12.3174 13.7833L15.2206 18.8385C15.3586 19.0803 15.4389 19.3508 15.4551 19.6288C15.4714 19.9068 15.4233 20.1848 15.3146 20.4412L15.2104 20.6862C15.1034 20.9346 14.9415 21.1556 14.7367 21.3324C14.5319 21.5093 14.2897 21.6373 14.0283 21.707L8.31165 23.2546V25.5433L13.9405 27.05C14.2107 27.1235 14.4602 27.2585 14.6695 27.4445C14.8789 27.6304 15.0423 27.8623 15.1471 28.1219L15.2451 28.369C15.3481 28.6221 15.3914 28.8955 15.372 29.1681C15.3525 29.4406 15.2707 29.7051 15.1329 29.941L12.1643 35.0779L13.7976 36.6928L18.8405 33.7957C19.0827 33.6562 19.354 33.5753 19.633 33.5593C19.912 33.5434 20.1909 33.5928 20.4473 33.7038L20.6637 33.7937C20.925 33.8962 21.1584 34.0588 21.345 34.2685C21.5316 34.4782 21.6662 34.7289 21.7376 35.0003L23.2546 40.7027Z" fill="#D9D2D0"/>
<path d="M24.5 30.625C23.2886 30.625 22.1044 30.2658 21.0971 29.5928C20.0899 28.9197 19.3048 27.9631 18.8412 26.8439C18.3777 25.7247 18.2564 24.4932 18.4927 23.3051C18.729 22.1169 19.3124 21.0256 20.169 20.169C21.0256 19.3124 22.1169 18.729 23.3051 18.4927C24.4932 18.2564 25.7247 18.3777 26.8439 18.8412C27.9631 19.3048 28.9197 20.0899 29.5928 21.0971C30.2658 22.1044 30.625 23.2886 30.625 24.5C30.625 26.1245 29.9797 27.6824 28.831 28.831C27.6824 29.9797 26.1245 30.625 24.5 30.625ZM24.5 20.4167C23.6924 20.4167 22.9029 20.6562 22.2314 21.1048C21.5599 21.5535 21.0366 22.1912 20.7275 22.9374C20.4184 23.6835 20.3376 24.5045 20.4951 25.2966C20.6527 26.0887 21.0416 26.8163 21.6127 27.3874C22.1837 27.9584 22.9113 28.3473 23.7034 28.5049C24.4955 28.6624 25.3165 28.5816 26.0626 28.2725C26.8088 27.9635 27.4465 27.4401 27.8952 26.7686C28.3439 26.0971 28.5833 25.3076 28.5833 24.5C28.5833 23.417 28.1531 22.3784 27.3874 21.6127C26.6216 20.8469 25.583 20.4167 24.5 20.4167Z" fill="#D9D2D0"/>
</svg>
